<svg xmlns="http://www.w3.org/2000/svg" viewBox="0 0 17.09 29.08"><defs><style>.cls-1{fill:#f4ce14;}.cls-2{fill:#4a5f58;}.cls-3{fill:#788061;}.cls-4{fill:#f2cd15;}</style></defs><g id="Calque_2" data-name="Calque 2"><g id="Calque_1-2" data-name="Calque 1"><path class="cls-1" d="M9.54,3.82c.75.68,1.7,1.08,2.48,1.71a18.86,18.86,0,0,1,2,2,9.57,9.57,0,0,1,1.81,2.91,7.9,7.9,0,0,1,1,3.34c0,.21.14.43.17.65a10,10,0,0,1,.06,2.19c-.14,1.18-.29,2.36-.53,3.53-.18.9-.57,1.73-.79,2.62a26.78,26.78,0,0,1-1.15,2.84,11.15,11.15,0,0,0-.73,1.65,1.63,1.63,0,0,0-.06.76,1.13,1.13,0,0,1-.3,1c-.13.17-1.14.07-1.32-.1-.38-.34-.83-.6-1.22-.92a4,4,0,0,0-1.54-.75,21.51,21.51,0,0,1-2.18-.74,4,4,0,0,1-1.3-.89,19.27,19.27,0,0,1-2-1.94,10.92,10.92,0,0,1-1.65-2.1c-.29-.64-.86-1.12-1.18-1.76a3.91,3.91,0,0,1-.27-.67c-.23-.9-.49-1.79-.7-2.69A4.61,4.61,0,0,1,0,15.32c0-1.27,0-2.54,0-3.82A1.09,1.09,0,0,1,.13,11c.44-.83.48-1.83,1.13-2.57a2.7,2.7,0,0,0,.44-1c.22-.7.54-1.36.83-2a3.48,3.48,0,0,0,.26-1.65,2.61,2.61,0,0,1,1.51-2c.39-.09.75-.44,1.19-.21.21,0,.34-.13.51-.2A9.52,9.52,0,0,1,8.86,1c.77,0,1.53.17,2.3.2a1.61,1.61,0,0,1,.38.08c.1,0,.25.06.24.2s-.14.2-.28.23a2.56,2.56,0,0,1-.62,0,43.53,43.53,0,0,0-4.67.14c.58.46.94,1,1.64,1.22A4.88,4.88,0,0,1,9.54,3.82Z"/><path class="cls-2" d="M9.54,3.82A18.61,18.61,0,0,1,7.35,3c-.59-.22-.89-.85-1.51-1.3,2.06-.15,4-.16,5.89-.2A12.89,12.89,0,0,0,5.92,1.4c-.1,0-.12,0-.12-.11A6.71,6.71,0,0,1,8.3.1,9.18,9.18,0,0,1,11,.1c.92.31,1.86.58,2.77.93.71.27.76.85.15,1.28a9.3,9.3,0,0,1-3.55,1.38C10.11,3.75,9.82,3.78,9.54,3.82Z"/><path class="cls-3" d="M5.8,1.29l.12.11c-.13.11-.25.26-.43.07Z"/><path class="cls-2" d="M9.65,8.93a5.43,5.43,0,0,0,.14,1.33c.1.35-.14.55-.49.41A7.84,7.84,0,0,1,8,10.06c-.87-.53-1.84-.84-2.7-1.37a3.78,3.78,0,0,1-1.58-2,4.44,4.44,0,0,1,.12-2.79A7.05,7.05,0,0,1,4.7,2.12a.62.62,0,0,1,1,0c1,.93,2,1.85,2.9,2.82a4.58,4.58,0,0,1,1,2.63A4,4,0,0,1,9.65,8.93Z"/><path class="cls-4" d="M5.35,3.25C6.59,5,7.44,7,8.54,8.89A2.75,2.75,0,0,1,7.32,7.72,20.42,20.42,0,0,1,5.26,3.59a1.08,1.08,0,0,1,0-.19S5.27,3.36,5.35,3.25Z"/></g></g></svg>