<?xml version="1.0"?>
<svg width="18" height="18" xmlns="http://www.w3.org/2000/svg" xmlns:svg="http://www.w3.org/2000/svg">
 <g class="layer">
  <title>Layer 1</title>
  <path d="m10.41,9l6.3,-6.29c0.19,-0.19 0.29,-0.44 0.29,-0.71c0,-0.27 -0.1,-0.52 -0.29,-0.71c-0.19,-0.19 -0.44,-0.29 -0.71,-0.29c-0.27,0 -0.52,0.1 -0.71,0.29l-6.29,6.3l-6.29,-6.3c-0.19,-0.19 -0.44,-0.29 -0.71,-0.29c-0.27,0 -0.52,0.1 -0.71,0.29c-0.19,0.19 -0.29,0.44 -0.29,0.71c0,0.27 0.1,0.52 0.29,0.71l6.3,6.29l-6.3,6.29c-0.09,0.09 -0.17,0.2 -0.22,0.33c-0.05,0.12 -0.08,0.25 -0.08,0.38c0,0.13 0.03,0.26 0.08,0.38c0.05,0.13 0.13,0.24 0.22,0.33c0.09,0.09 0.2,0.17 0.33,0.22c0.12,0.05 0.25,0.08 0.38,0.08c0.13,0 0.26,-0.03 0.38,-0.08c0.13,-0.05 0.24,-0.13 0.33,-0.22l6.29,-6.3l6.29,6.3c0.09,0.09 0.2,0.17 0.33,0.22c0.12,0.05 0.25,0.08 0.38,0.08c0.13,0 0.26,-0.03 0.38,-0.08c0.13,-0.05 0.24,-0.13 0.33,-0.22c0.09,-0.09 0.17,-0.2 0.22,-0.33c0.05,-0.12 0.08,-0.25 0.08,-0.38c0,-0.13 -0.03,-0.26 -0.08,-0.38c-0.05,-0.13 -0.13,-0.24 -0.22,-0.33l-6.3,-6.29z" fill="#000000" id="svg_1"/>
 </g>
</svg>