<?xml version="1.0"?>
<svg width="20" height="12" xmlns="http://www.w3.org/2000/svg" xmlns:svg="http://www.w3.org/2000/svg">
 <g class="layer">
  <title>Layer 1</title>
  <path d="m9,2l10,0c0.27,0 0.52,-0.11 0.71,-0.29c0.18,-0.19 0.29,-0.44 0.29,-0.71c0,-0.27 -0.11,-0.52 -0.29,-0.71c-0.19,-0.18 -0.44,-0.29 -0.71,-0.29l-10,0c-0.27,0 -0.52,0.11 -0.71,0.29c-0.18,0.19 -0.29,0.44 -0.29,0.71c0,0.27 0.11,0.52 0.29,0.71c0.19,0.18 0.44,0.29 0.71,0.29zm10,8l-18,0c-0.27,0 -0.52,0.11 -0.71,0.29c-0.18,0.19 -0.29,0.44 -0.29,0.71c0,0.27 0.11,0.52 0.29,0.71c0.19,0.18 0.44,0.29 0.71,0.29l18,0c0.27,0 0.52,-0.11 0.71,-0.29c0.18,-0.19 0.29,-0.44 0.29,-0.71c0,-0.27 -0.11,-0.52 -0.29,-0.71c-0.19,-0.18 -0.44,-0.29 -0.71,-0.29l0,0zm-18,-3l18,0c0.27,0 0.52,-0.11 0.71,-0.29c0.18,-0.19 0.29,-0.44 0.29,-0.71c0,-0.27 -0.11,-0.52 -0.29,-0.71c-0.19,-0.18 -0.44,-0.29 -0.71,-0.29l-18,0c-0.27,0 -0.52,0.11 -0.71,0.29c-0.18,0.19 -0.29,0.44 -0.29,0.71c0,0.27 0.11,0.52 0.29,0.71c0.19,0.18 0.44,0.29 0.71,0.29z" fill="#000000" id="svg_1"/>
 </g>
</svg>